<svg width="720" height="600" xmlns="http://www.w3.org/2000/svg" viewBox="-31 -96 792 792">

 <g id="logo-body">
  <ellipse stroke="#121212" ry="1.5" rx="197.42393" cy="537.75591" cx="361.68158" fill-opacity="null" stroke-opacity="null" stroke-width="67" fill="none"/>
  <ellipse stroke="#121212" transform="rotate(89.94368743896484 558.8717041015625,461.27081298828125) " ry="1.5" rx="74.90897" cy="461.27079" cx="558.87171" fill-opacity="null" stroke-width="67" fill="none"/>
  <ellipse stroke="#121212" transform="rotate(89.94368743896484 162.84243774414062,429.4668579101563) " ry="1.5" rx="104.71296" cy="429.46682" cx="162.84244" fill-opacity="null" stroke-width="67" fill="none"/>
  <line stroke="#121212" stroke-linecap="null" stroke-linejoin="null" y2="29.22308" x2="162.2273" y1="119.55763" x1="162.2273" fill-opacity="null" stroke-width="68" fill="none"/>
  <line stroke="#121212" stroke-linecap="null" stroke-linejoin="null" y2="351.68761" x2="558.89536" y1="412.79845" x1="558.89536" fill-opacity="null" stroke-width="69" fill="none"/>
  <ellipse stroke="#121212" ry="1.5" rx="197.42393" cy="537.75591" cx="361.68158" fill-opacity="null" stroke-width="67" fill="none"/>
  <path stroke="#121212" d="m136.26294,127.46843l0,30.26639l37.33337,-30.26639l-37.33337,0z" fill-opacity="null" stroke-width="16" fill="none"/>
  <rect stroke="#121212" height="18.93137" width="12.00726" y="112.19933" x="140.97655" fill-opacity="null" stroke-width="25" fill="none"/>
  <rect stroke="#121212" height="0.15409" width="12.00726" y="111.10763" x="164.55732" fill-opacity="null" stroke-width="25" fill="none"/>
  <rect stroke="#121212" height="0.02552" width="9.95066" y="118.04848" x="183.58049" fill-opacity="null" stroke-width="4" fill="none"/>
  <line stroke="#121212" stroke-linecap="null" stroke-linejoin="null" y2="288.26097" x2="162.2273" y1="378.59553" x1="162.2273" fill-opacity="null" stroke-width="68" fill="none"/>
  <path stroke="#121212" d="m188.17789,280.28963l0,-29.21056l-36.91721,29.21056l36.91721,0z" fill-opacity="null" stroke-width="16" fill="none"/>
  <rect stroke="#121212" height="0.15409" width="12.00726" y="279.76822" x="171.45964" fill-opacity="null" stroke-width="25" fill="none"/>
  <rect stroke="#121212" height="0.02552" width="28.08942" y="290.07692" x="130.72003" fill-opacity="null" stroke-width="4" fill="none"/>
 </g>
 <g id="logo-roof">
  <line stroke="#eb4132" transform="rotate(13.5435152053833 230.49327850341797,149.97248554229736)" stroke-linecap="null" stroke-linejoin="null" y2="6.47249" x2="342.58091" y1="293.47249" x1="118.40566" fill-opacity="null" stroke-width="57" fill="none"/>
  <line stroke="#eb4132" transform="rotate(-89.57743072509766 480.49330139160156,148.97248554229736)" stroke-linecap="null" stroke-linejoin="null" y2="5.47249" x2="592.58091" y1="292.47249" x1="368.40566" fill-opacity="null" stroke-width="57" fill="none"/>
  <path stroke="#eb4132" d="m613.4751,276.60382l0,-48.27003l60.8808,48.27003l-60.8808,0z" fill-opacity="null" stroke-width="16" fill="none"/>
  <rect stroke="#eb4132" height="0.5" width="7.5" y="263.72881" x="632.60741" fill-opacity="null" stroke-width="25" fill="none"/>
  <path stroke="#eb4132" d="m97.52341,277.79632l0,-48.48274l-60.82168,48.48274l60.82168,0z" fill-opacity="null" stroke-width="16" fill="none"/>
  <rect stroke="#eb4132" height="0.5" width="12.39795" y="265.36468" x="71.83366" fill-opacity="null" stroke-width="25" fill="none"/>
 </g>
</svg>